<svg class="diagram-root" style="background: #f5f6f6" xmlns="http://www.w3.org/2000/svg" xmlns:xlink="http://www.w3.org/1999/xlink"><style>.diagram-root { font-family: "Helvetica Neue", sans-serif; font-size: 12px; } .t { overflow: visible; } .t-bg { y: 40; fill: #fff;   } .th { fill: #005aa0;   } .tht { fill: #fff; font-size: 14px;  } .tf { fill: #323c46; overflow: visible; } .tf.pk { fill: #005aa0; font-weight: bold; } .tf.fk { font-weight: bold; } .ty { fill: #adb1b5; font-weight: normal; text-anchor: end; } .r { fill: transparent; stroke: #c3c3c3; stroke-width: 1; } .l { stroke: 1; } .i { fill: #c2c7ce; stroke: #c2c7ce; } .i.ix { fill: #afb3b6; stroke: #000; } .fa { fill: transparent; overflow: visible; } .fa .bg.hover { fill: #f7f7f7; } .c { cy: 12; r: 4; stroke: #d2d2dc; fill: #d2d2dc; } .hr { fill: transparent; stroke: #323c46; stroke-opacity: 0.035; stroke-width: 13; } .dc { stroke: #fa5a3c; fill: #fa5a3c; } .x { stroke: white; stroke-width: 1; } .hl .th { fill: #1b9bff; } .hl .tht {  } .fhl .bg { fill: #e7f4ff; } .fhls .bg {  } .r.hl { stroke: #1b9bff; } .dim { opacity: 0.25; }</style><g class="drawing-wrapper" transform="translate(-131.75, 83.75) scale(1,1)"><g class="rs"><path d="M 455 303.25 m -1, 0 a 1,1 0 1,0 2,0 a 1,1 0 1,0 -2,0 M 455 303.25 m -0.5, 0 a 0.5,0.5 0 1,0 1,0 a 0.5,0.5 0 1,0 -1,0  M455 303.25 L455 303.25 443 303.25 M 455 309.25 m -1, 0 a 1,1 0 1,0 2,0 a 1,1 0 1,0 -2,0 M 455 309.25 m -0.5, 0 a 0.5,0.5 0 1,0 1,0 a 0.5,0.5 0 1,0 -1,0  M455 309.25 L455 309.25 448 303.25 455 297.25 M 455 297.25 m -1, 0 a 1,1 0 1,0 2,0 a 1,1 0 1,0 -2,0 M 455 297.25 m -0.5, 0 a 0.5,0.5 0 1,0 1,0 a 0.5,0.5 0 1,0 -1,0  M443 303.25 Q 425.11 303.25, 407.22 262.36 T 371.43 221.46428571428558 M 359.43 221.46428571428558 m -1, 0 a 1,1 0 1,0 2,0 a 1,1 0 1,0 -2,0 M 359.43 221.46428571428558 m -0.5, 0 a 0.5,0.5 0 1,0 1,0 a 0.5,0.5 0 1,0 -1,0  M359.43 221.46428571428558 L359.43 221.46428571428558 371.43 221.46428571428558 M365.43 227.46428571428558 L365.43 227.46428571428558 365.43 215.46428571428558" id="h4104465017" class="r"></path><path d="M 455 328.25 m -1, 0 a 1,1 0 1,0 2,0 a 1,1 0 1,0 -2,0 M 455 328.25 m -0.5, 0 a 0.5,0.5 0 1,0 1,0 a 0.5,0.5 0 1,0 -1,0  M455 328.25 L455 328.25 443 328.25 M 455 334.25 m -1, 0 a 1,1 0 1,0 2,0 a 1,1 0 1,0 -2,0 M 455 334.25 m -0.5, 0 a 0.5,0.5 0 1,0 1,0 a 0.5,0.5 0 1,0 -1,0  M455 334.25 L455 334.25 448 328.25 455 322.25 M 455 322.25 m -1, 0 a 1,1 0 1,0 2,0 a 1,1 0 1,0 -2,0 M 455 322.25 m -0.5, 0 a 0.5,0.5 0 1,0 1,0 a 0.5,0.5 0 1,0 -1,0  M443 328.25 Q 423.44 328.25, 403.88 352.63 T 364.75 377 M 352.75 377 m -1, 0 a 1,1 0 1,0 2,0 a 1,1 0 1,0 -2,0 M 352.75 377 m -0.5, 0 a 0.5,0.5 0 1,0 1,0 a 0.5,0.5 0 1,0 -1,0  M352.75 377 L352.75 377 364.75 377 M358.75 383 L358.75 383 358.75 371" id="h3069658398" class="r"></path><path d="M 750 27 m -1, 0 a 1,1 0 1,0 2,0 a 1,1 0 1,0 -2,0 M 750 27 m -0.5, 0 a 0.5,0.5 0 1,0 1,0 a 0.5,0.5 0 1,0 -1,0  M750 27 L750 27 738 27 M 750 33 m -1, 0 a 1,1 0 1,0 2,0 a 1,1 0 1,0 -2,0 M 750 33 m -0.5, 0 a 0.5,0.5 0 1,0 1,0 a 0.5,0.5 0 1,0 -1,0  M750 33 L750 33 743 27 750 21 M 750 21 m -1, 0 a 1,1 0 1,0 2,0 a 1,1 0 1,0 -2,0 M 750 21 m -0.5, 0 a 0.5,0.5 0 1,0 1,0 a 0.5,0.5 0 1,0 -1,0  M738 27 Q 720 27, 702 27.63 T 666 28.25 M 654 28.25 m -1, 0 a 1,1 0 1,0 2,0 a 1,1 0 1,0 -2,0 M 654 28.25 m -0.5, 0 a 0.5,0.5 0 1,0 1,0 a 0.5,0.5 0 1,0 -1,0  M654 28.25 L654 28.25 666 28.25 M660 34.25 L660 34.25 660 22.25" id="h3508334826" class="r"></path></g><g class="hrs"></g><g class="ts"><svg width="199" height="400" x="455" y="-53.75" id="h4012747393" class="t"><rect height="40" width="199" class="th"></rect><text x="13" y="25" class="tht">campaigns</text><rect height="360" width="199" class="t-bg" y="40"></rect><text x="13" y="61" class="tf">cf_id<tspan x="186" class="ty">int</tspan></text><text x="13" y="86" class="tf fk">contact_id<tspan x="186" class="ty">int</tspan></text><text x="13" y="111" class="tf">company_name<tspan x="186" class="ty">varchar(75)</tspan></text><text x="13" y="136" class="tf">description<tspan x="186" class="ty">varchar(75)</tspan></text><text x="13" y="161" class="tf">goal<tspan x="186" class="ty">double</tspan></text><text x="13" y="186" class="tf">pledged<tspan x="186" class="ty">int</tspan></text><text x="13" y="211" class="tf">outcome<tspan x="186" class="ty">varchar(75)</tspan></text><text x="13" y="236" class="tf">backers_count<tspan x="186" class="ty">int</tspan></text><text x="13" y="261" class="tf">country<tspan x="186" class="ty">varchar(75)</tspan></text><text x="13" y="286" class="tf">currency<tspan x="186" class="ty">varchar(75)</tspan></text><text x="13" y="311" class="tf">launched_date<tspan x="186" class="ty">date</tspan></text><text x="13" y="336" class="tf">end_date<tspan x="186" class="ty">date</tspan></text><text x="13" y="361" class="tf fk">category_ids<tspan x="186" class="ty">varchar(75)</tspan></text><text x="13" y="386" class="tf fk">subcategory_ids<tspan x="186" class="ty">varchar(75)</tspan></text></svg><svg width="167" height="150" x="750" y="-30" id="h4144639668" class="t"><rect height="40" width="167" class="th"></rect><text x="13" y="25" class="tht">contacts</text><rect height="110" width="167" class="t-bg" y="40"></rect><text x="13" y="61" class="tf fk">contact_id<tspan x="154" class="ty">int</tspan></text><text x="13" y="86" class="tf">first_name<tspan x="154" class="ty">varchar(75)</tspan></text><text x="13" y="111" class="tf">last_name<tspan x="154" class="ty">varchar(75)</tspan></text><text x="13" y="136" class="tf">email<tspan x="154" class="ty">varchar(75)</tspan></text></svg><svg width="199" height="100" x="153.75" y="320" id="h3476456864" class="t"><rect height="40" width="199" class="th"></rect><text x="13" y="25" class="tht">subcategories</text><rect height="60" width="199" class="t-bg" y="40"></rect><text x="13" y="61" class="tf fk">subcategory_ids<tspan x="186" class="ty">varchar(75)</tspan></text><text x="13" y="86" class="tf">subcategory<tspan x="186" class="ty">varchar(75)</tspan></text></svg><svg width="178" height="100" x="181.42857142857133" y="164.46428571428558" id="h2794354149" class="t"><rect height="40" width="178" class="th"></rect><text x="13" y="25" class="tht">category</text><rect height="60" width="178" class="t-bg" y="40"></rect><text x="13" y="61" class="tf fk">category_ids<tspan x="165" class="ty">varchar(75)</tspan></text><text x="13" y="86" class="tf">category<tspan x="165" class="ty">varchar(75)</tspan></text></svg></g></g><text class="qdbd-link" x="10" y="20">www.quickdatabasediagrams.com</text></svg>